<mxfile host="app.diagrams.net" modified="2024-06-08T04:39:45.485Z" agent="Mozilla/5.0 (Windows NT 10.0; Win64; x64) AppleWebKit/537.36 (KHTML, like Gecko) Chrome/125.0.0.0 Safari/537.36 Edg/125.0.0.0" etag="pqdk1lEdLHE5orOHIlZL" version="24.5.2" type="github">
  <diagram name="第 1 页" id="ti7OxOrkR3i0LKEO_s68">
    <mxGraphModel dx="229" dy="143" grid="1" gridSize="10" guides="1" tooltips="1" connect="1" arrows="1" fold="1" page="1" pageScale="1" pageWidth="1169" pageHeight="827" math="0" shadow="0">
      <root>
        <mxCell id="0" />
        <mxCell id="1" parent="0" />
        <mxCell id="pqfTvtI4yhCtLm114-ir-30" style="edgeStyle=orthogonalEdgeStyle;rounded=0;orthogonalLoop=1;jettySize=auto;html=1;exitX=0.5;exitY=1;exitDx=0;exitDy=0;entryX=0.5;entryY=0;entryDx=0;entryDy=0;" parent="1" source="pqfTvtI4yhCtLm114-ir-2" target="pqfTvtI4yhCtLm114-ir-13" edge="1">
          <mxGeometry relative="1" as="geometry" />
        </mxCell>
        <mxCell id="pqfTvtI4yhCtLm114-ir-31" value="01" style="edgeLabel;html=1;align=center;verticalAlign=middle;resizable=0;points=[];" parent="pqfTvtI4yhCtLm114-ir-30" vertex="1" connectable="0">
          <mxGeometry x="-0.0843" y="-3" relative="1" as="geometry">
            <mxPoint as="offset" />
          </mxGeometry>
        </mxCell>
        <mxCell id="pqfTvtI4yhCtLm114-ir-32" style="edgeStyle=orthogonalEdgeStyle;rounded=0;orthogonalLoop=1;jettySize=auto;html=1;exitX=1;exitY=0.5;exitDx=0;exitDy=0;" parent="1" source="pqfTvtI4yhCtLm114-ir-2" target="pqfTvtI4yhCtLm114-ir-4" edge="1">
          <mxGeometry relative="1" as="geometry" />
        </mxCell>
        <mxCell id="pqfTvtI4yhCtLm114-ir-33" value="10" style="edgeLabel;html=1;align=center;verticalAlign=middle;resizable=0;points=[];" parent="pqfTvtI4yhCtLm114-ir-32" vertex="1" connectable="0">
          <mxGeometry x="0.3238" y="3" relative="1" as="geometry">
            <mxPoint as="offset" />
          </mxGeometry>
        </mxCell>
        <mxCell id="NtWvuTqZHZV_7nu2-nWf-2" style="edgeStyle=orthogonalEdgeStyle;rounded=0;orthogonalLoop=1;jettySize=auto;html=1;" edge="1" parent="1" source="pqfTvtI4yhCtLm114-ir-2" target="NtWvuTqZHZV_7nu2-nWf-3">
          <mxGeometry relative="1" as="geometry">
            <mxPoint x="240" y="600" as="targetPoint" />
          </mxGeometry>
        </mxCell>
        <mxCell id="NtWvuTqZHZV_7nu2-nWf-4" value="00和11" style="edgeLabel;html=1;align=center;verticalAlign=middle;resizable=0;points=[];" vertex="1" connectable="0" parent="NtWvuTqZHZV_7nu2-nWf-2">
          <mxGeometry x="0.3479" y="1" relative="1" as="geometry">
            <mxPoint as="offset" />
          </mxGeometry>
        </mxCell>
        <mxCell id="pqfTvtI4yhCtLm114-ir-2" value="判断当前multiplier[0] multiplier_plus的值" style="rhombus;whiteSpace=wrap;html=1;rounded=0;" parent="1" vertex="1">
          <mxGeometry x="310" y="467" width="180" height="80" as="geometry" />
        </mxCell>
        <mxCell id="pqfTvtI4yhCtLm114-ir-48" style="edgeStyle=orthogonalEdgeStyle;rounded=0;orthogonalLoop=1;jettySize=auto;html=1;exitX=0.5;exitY=1;exitDx=0;exitDy=0;" parent="1" source="pqfTvtI4yhCtLm114-ir-4" edge="1">
          <mxGeometry relative="1" as="geometry">
            <mxPoint x="560" y="830" as="targetPoint" />
          </mxGeometry>
        </mxCell>
        <mxCell id="pqfTvtI4yhCtLm114-ir-4" value="部分积-x补；&lt;div&gt;部分积、乘数算术右移1位&lt;/div&gt;" style="whiteSpace=wrap;html=1;rounded=0;" parent="1" vertex="1">
          <mxGeometry x="500" y="597" width="120" height="60" as="geometry" />
        </mxCell>
        <mxCell id="pqfTvtI4yhCtLm114-ir-49" style="edgeStyle=orthogonalEdgeStyle;rounded=0;orthogonalLoop=1;jettySize=auto;html=1;exitX=0.5;exitY=1;exitDx=0;exitDy=0;" parent="1" source="pqfTvtI4yhCtLm114-ir-13" edge="1">
          <mxGeometry relative="1" as="geometry">
            <mxPoint x="400" y="830" as="targetPoint" />
          </mxGeometry>
        </mxCell>
        <mxCell id="pqfTvtI4yhCtLm114-ir-13" value="部分积+x补；&lt;div&gt;部分积、乘数算术右移1位&lt;/div&gt;" style="rounded=0;whiteSpace=wrap;html=1;" parent="1" vertex="1">
          <mxGeometry x="340" y="597" width="120" height="60" as="geometry" />
        </mxCell>
        <mxCell id="pqfTvtI4yhCtLm114-ir-50" style="edgeStyle=orthogonalEdgeStyle;rounded=0;orthogonalLoop=1;jettySize=auto;html=1;exitX=0.5;exitY=1;exitDx=0;exitDy=0;entryX=0.5;entryY=0;entryDx=0;entryDy=0;" parent="1" source="pqfTvtI4yhCtLm114-ir-18" target="pqfTvtI4yhCtLm114-ir-2" edge="1">
          <mxGeometry relative="1" as="geometry" />
        </mxCell>
        <mxCell id="pqfTvtI4yhCtLm114-ir-51" value="是" style="edgeLabel;html=1;align=center;verticalAlign=middle;resizable=0;points=[];" parent="pqfTvtI4yhCtLm114-ir-50" vertex="1" connectable="0">
          <mxGeometry y="1" relative="1" as="geometry">
            <mxPoint as="offset" />
          </mxGeometry>
        </mxCell>
        <mxCell id="pqfTvtI4yhCtLm114-ir-53" style="edgeStyle=orthogonalEdgeStyle;rounded=0;orthogonalLoop=1;jettySize=auto;html=1;exitX=1;exitY=0.5;exitDx=0;exitDy=0;" parent="1" source="pqfTvtI4yhCtLm114-ir-18" target="pqfTvtI4yhCtLm114-ir-54" edge="1">
          <mxGeometry relative="1" as="geometry">
            <mxPoint x="840" y="477" as="targetPoint" />
            <Array as="points">
              <mxPoint x="800" y="347" />
            </Array>
          </mxGeometry>
        </mxCell>
        <mxCell id="pqfTvtI4yhCtLm114-ir-18" value="移位次数是否小于数据位宽？" style="rhombus;whiteSpace=wrap;html=1;" parent="1" vertex="1">
          <mxGeometry x="310" y="307" width="180" height="80" as="geometry" />
        </mxCell>
        <mxCell id="pqfTvtI4yhCtLm114-ir-66" style="edgeStyle=orthogonalEdgeStyle;rounded=0;orthogonalLoop=1;jettySize=auto;html=1;entryX=0.5;entryY=0;entryDx=0;entryDy=0;" parent="1" source="pqfTvtI4yhCtLm114-ir-21" target="pqfTvtI4yhCtLm114-ir-18" edge="1">
          <mxGeometry relative="1" as="geometry" />
        </mxCell>
        <mxCell id="pqfTvtI4yhCtLm114-ir-21" value="余数+ -[y*]补" style="rounded=0;whiteSpace=wrap;html=1;" parent="1" vertex="1">
          <mxGeometry x="340" y="220" width="120" height="60" as="geometry" />
        </mxCell>
        <mxCell id="pqfTvtI4yhCtLm114-ir-64" style="edgeStyle=orthogonalEdgeStyle;rounded=0;orthogonalLoop=1;jettySize=auto;html=1;exitX=0.5;exitY=1;exitDx=0;exitDy=0;" parent="1" target="pqfTvtI4yhCtLm114-ir-18" edge="1">
          <mxGeometry relative="1" as="geometry">
            <mxPoint x="400" y="310" as="targetPoint" />
            <Array as="points">
              <mxPoint x="560" y="827" />
              <mxPoint x="160" y="827" />
              <mxPoint x="160" y="300" />
              <mxPoint x="400" y="300" />
            </Array>
            <mxPoint x="560" y="737" as="sourcePoint" />
          </mxGeometry>
        </mxCell>
        <mxCell id="pqfTvtI4yhCtLm114-ir-57" style="edgeStyle=orthogonalEdgeStyle;rounded=0;orthogonalLoop=1;jettySize=auto;html=1;exitX=0.5;exitY=1;exitDx=0;exitDy=0;entryX=0.5;entryY=0;entryDx=0;entryDy=0;" parent="1" source="pqfTvtI4yhCtLm114-ir-54" target="pqfTvtI4yhCtLm114-ir-56" edge="1">
          <mxGeometry relative="1" as="geometry" />
        </mxCell>
        <mxCell id="pqfTvtI4yhCtLm114-ir-58" value="是" style="edgeLabel;html=1;align=center;verticalAlign=middle;resizable=0;points=[];" parent="pqfTvtI4yhCtLm114-ir-57" vertex="1" connectable="0">
          <mxGeometry x="-0.4007" relative="1" as="geometry">
            <mxPoint as="offset" />
          </mxGeometry>
        </mxCell>
        <mxCell id="pqfTvtI4yhCtLm114-ir-61" style="edgeStyle=orthogonalEdgeStyle;rounded=0;orthogonalLoop=1;jettySize=auto;html=1;" parent="1" source="pqfTvtI4yhCtLm114-ir-54" edge="1">
          <mxGeometry relative="1" as="geometry">
            <Array as="points">
              <mxPoint x="970" y="507" />
            </Array>
            <mxPoint x="970" y="600" as="targetPoint" />
          </mxGeometry>
        </mxCell>
        <mxCell id="pqfTvtI4yhCtLm114-ir-62" value="否" style="edgeLabel;html=1;align=center;verticalAlign=middle;resizable=0;points=[];" parent="pqfTvtI4yhCtLm114-ir-61" vertex="1" connectable="0">
          <mxGeometry x="-0.0573" relative="1" as="geometry">
            <mxPoint as="offset" />
          </mxGeometry>
        </mxCell>
        <mxCell id="pqfTvtI4yhCtLm114-ir-54" value="判断当前multiplier[0] multiplier_plus的值" style="rhombus;whiteSpace=wrap;html=1;" parent="1" vertex="1">
          <mxGeometry x="710" y="467" width="180" height="80" as="geometry" />
        </mxCell>
        <mxCell id="pqfTvtI4yhCtLm114-ir-59" style="edgeStyle=orthogonalEdgeStyle;rounded=0;orthogonalLoop=1;jettySize=auto;html=1;exitX=0.5;exitY=1;exitDx=0;exitDy=0;" parent="1" source="pqfTvtI4yhCtLm114-ir-56" target="pqfTvtI4yhCtLm114-ir-60" edge="1">
          <mxGeometry relative="1" as="geometry">
            <mxPoint x="850" y="747" as="targetPoint" />
          </mxGeometry>
        </mxCell>
        <mxCell id="pqfTvtI4yhCtLm114-ir-56" value="部分积+x补；&lt;div&gt;&lt;br&gt;&lt;/div&gt;" style="rounded=0;whiteSpace=wrap;html=1;" parent="1" vertex="1">
          <mxGeometry x="740" y="597" width="120" height="60" as="geometry" />
        </mxCell>
        <mxCell id="pqfTvtI4yhCtLm114-ir-60" value="设置busy为0&lt;div&gt;输出结果&lt;/div&gt;" style="rounded=0;whiteSpace=wrap;html=1;" parent="1" vertex="1">
          <mxGeometry x="740" y="767" width="120" height="60" as="geometry" />
        </mxCell>
        <mxCell id="pqfTvtI4yhCtLm114-ir-67" style="edgeStyle=orthogonalEdgeStyle;rounded=0;orthogonalLoop=1;jettySize=auto;html=1;exitX=0.5;exitY=1;exitDx=0;exitDy=0;" parent="1" source="pqfTvtI4yhCtLm114-ir-65" target="pqfTvtI4yhCtLm114-ir-68" edge="1">
          <mxGeometry relative="1" as="geometry">
            <mxPoint x="400.17647058823536" y="139.9999999999999" as="targetPoint" />
          </mxGeometry>
        </mxCell>
        <mxCell id="pqfTvtI4yhCtLm114-ir-65" value="初始化寄存器为0&lt;div&gt;等待start信号及赋值&lt;/div&gt;" style="rounded=0;whiteSpace=wrap;html=1;" parent="1" vertex="1">
          <mxGeometry x="340" y="30" width="120" height="60" as="geometry" />
        </mxCell>
        <mxCell id="pqfTvtI4yhCtLm114-ir-69" style="edgeStyle=orthogonalEdgeStyle;rounded=0;orthogonalLoop=1;jettySize=auto;html=1;exitX=0.5;exitY=1;exitDx=0;exitDy=0;entryX=0.5;entryY=0;entryDx=0;entryDy=0;" parent="1" source="pqfTvtI4yhCtLm114-ir-68" target="pqfTvtI4yhCtLm114-ir-21" edge="1">
          <mxGeometry relative="1" as="geometry" />
        </mxCell>
        <mxCell id="pqfTvtI4yhCtLm114-ir-68" value="为x、y赋值" style="rounded=0;whiteSpace=wrap;html=1;" parent="1" vertex="1">
          <mxGeometry x="339.99647058823535" y="129.9999999999999" width="120" height="60" as="geometry" />
        </mxCell>
        <mxCell id="NtWvuTqZHZV_7nu2-nWf-5" style="edgeStyle=orthogonalEdgeStyle;rounded=0;orthogonalLoop=1;jettySize=auto;html=1;" edge="1" parent="1" source="NtWvuTqZHZV_7nu2-nWf-3">
          <mxGeometry relative="1" as="geometry">
            <mxPoint x="240" y="830" as="targetPoint" />
          </mxGeometry>
        </mxCell>
        <mxCell id="NtWvuTqZHZV_7nu2-nWf-3" value="部分积、乘数算术右移1位" style="rounded=0;whiteSpace=wrap;html=1;" vertex="1" parent="1">
          <mxGeometry x="180" y="597" width="120" height="60" as="geometry" />
        </mxCell>
        <mxCell id="NtWvuTqZHZV_7nu2-nWf-7" style="edgeStyle=orthogonalEdgeStyle;rounded=0;orthogonalLoop=1;jettySize=auto;html=1;entryX=1.024;entryY=0.86;entryDx=0;entryDy=0;entryPerimeter=0;" edge="1" parent="1" target="pqfTvtI4yhCtLm114-ir-60">
          <mxGeometry relative="1" as="geometry">
            <mxPoint x="870" y="820" as="targetPoint" />
            <mxPoint x="1009.9896907216496" y="664" as="sourcePoint" />
            <Array as="points">
              <mxPoint x="1010" y="817" />
              <mxPoint x="870" y="817" />
              <mxPoint x="870" y="819" />
            </Array>
          </mxGeometry>
        </mxCell>
        <mxCell id="NtWvuTqZHZV_7nu2-nWf-6" value="部分积-x补" style="rounded=0;whiteSpace=wrap;html=1;" vertex="1" parent="1">
          <mxGeometry x="910" y="597" width="120" height="60" as="geometry" />
        </mxCell>
      </root>
    </mxGraphModel>
  </diagram>
</mxfile>
